<?xml version="1.0" standalone="no"?><!DOCTYPE svg PUBLIC "-//W3C//DTD SVG 1.1//EN" "http://www.w3.org/Graphics/SVG/1.1/DTD/svg11.dtd"><svg class="icon" width="200px" height="200.00px" viewBox="0 0 1024 1024" version="1.1" xmlns="http://www.w3.org/2000/svg"><path d="M793.5 149.5c22.1 0 40 17.9 40 40v480c0 110.3-89.7 200-200 200h-400c-22.1 0-40-17.9-40-40v-640c0-22.1 17.9-40 40-40h560m0-40h-560c-44.2 0-80 35.8-80 80v640c0 44.2 35.8 80 80 80h400c132.6 0 240-107.5 240-240v-480c0-44.2-35.8-80-80-80z" fill="#565C67" /><path d="M333.5 729.5h240v-80h-240v80z m0-180h360v-80h-360v80z m0-260v80h360v-80h-360z" fill="#CCCED1" /></svg>