<?xml version="1.0" encoding="utf-8"?>
<!-- Generator: Adobe Illustrator 22.0.0, SVG Export Plug-In . SVG Version: 6.00 Build 0)  -->
<svg version="1.1" id="图层_1" xmlns="http://www.w3.org/2000/svg" xmlns:xlink="http://www.w3.org/1999/xlink" x="0px" y="0px"
	 viewBox="0 0 200 200" style="enable-background:new 0 0 200 200;" xml:space="preserve">
<style type="text/css">
	.st0{fill:#1678FF;}
</style>
<g>
	<path class="st0" d="M100,21.9c-43.1,0-78.1,35-78.1,78.1c0,14.1,3.8,28,11.1,40.1c-2.4,5.8-4.9,11.6-7.3,17.4
		c-0.3,0.7-0.3,1.4-0.2,2.1c0.4,2,2.3,3.3,4.2,2.9c0.1,0,8.6-1.6,18.8-3.7c14.3,12.5,32.5,19.4,51.5,19.4c43.1,0,78.1-35,78.1-78.1
		S143.1,21.9,100,21.9z M103.7,152.4c-26.8,0-48.6-23.5-48.6-52.3c0-4.3,3.4-7.8,7.5-7.8S70,95.8,70,100c0,20.3,15.1,36.8,33.7,36.8
		c18.6,0,33.7-16.5,33.7-36.8c0-2,0.7-3.9,2.1-5.4c1.4-1.5,3.4-2.4,5.4-2.4c4.1,0,7.5,3.5,7.5,7.8
		C152.4,128.9,130.5,152.4,103.7,152.4z"/>
</g>
</svg>
