<?xml version="1.0" standalone="no"?><!DOCTYPE svg PUBLIC "-//W3C//DTD SVG 1.1//EN" "http://www.w3.org/Graphics/SVG/1.1/DTD/svg11.dtd"><svg class="icon" width="200px" height="200.00px" viewBox="0 0 1024 1024" version="1.1" xmlns="http://www.w3.org/2000/svg"><path d="M632.1 152v288.2c0 6.9 1.8 13.7 5.2 19.7l187.1 330.3c12.2 32.1 8 56.3-0.2 68.4-6.1 9-15.6 13.4-29 13.4H228.9c-13.5 0-23-4.4-29-13.4-8.2-12.1-12.4-36.4-0.2-68.5L387 459.4c3.4-6 5.2-12.8 5.2-19.7V152h239.9m40-40h-320v327.7L163.4 772.9c-28.8 71.7-1.6 139.1 65.5 139.1h566.3c67 0 94.3-67.4 65.4-139.1L672.1 440.2V112z" fill="#565C67" /><path d="M292 112h440v40H292v-40z" fill="#565C67" /><path d="M562 692c-38.7 0-70 31.3-70 70s31.3 70 70 70 70-31.3 70-70-31.3-70-70-70zM432 592c-22.1 0-40 17.9-40 40s17.9 40 40 40 40-17.9 40-40-17.9-40-40-40z m120-20c22.1 0 40-17.9 40-40s-17.9-40-40-40-40 17.9-40 40 17.9 40 40 40z" fill="#CCCED1" /></svg>