<?xml version="1.0" encoding="utf-8"?>
<!-- Generator: Adobe Illustrator 22.0.0, SVG Export Plug-In . SVG Version: 6.00 Build 0)  -->
<svg version="1.1" id="图层_1" xmlns="http://www.w3.org/2000/svg" xmlns:xlink="http://www.w3.org/1999/xlink" x="0px" y="0px"
	 viewBox="0 0 200 200" style="enable-background:new 0 0 200 200;" xml:space="preserve">
<style type="text/css">
	.st0{fill:#1678FF;}
</style>
<path class="st0" d="M165.6,171.3H34.4c-5.2,0-9.4-4.2-9.4-9.4s4.2-9.4,9.4-9.4V95.6C34.4,59.4,63.8,30,100,30s65.6,29.4,65.6,65.6
	v56.9c5.2,0,9.4,4.2,9.4,9.4S170.8,171.3,165.6,171.3L165.6,171.3z M118.8,86.3h-9.4v-9.4c0-5.2-4.2-9.4-9.4-9.4s-9.4,4.2-9.4,9.4
	v9.4h-9.4c-5.2,0-9.4,4.2-9.4,9.4c0,5.2,4.2,9.4,9.4,9.4h9.4v9.4c0,5.2,4.2,9.4,9.4,9.4c5.2,0,9.4-4.2,9.4-9.4v-9.4h9.4
	c5.2,0,9.4-4.2,9.4-9.4C128.1,90.5,123.9,86.3,118.8,86.3z"/>
</svg>
