<?xml version="1.0" standalone="no"?><!DOCTYPE svg PUBLIC "-//W3C//DTD SVG 1.1//EN" "http://www.w3.org/Graphics/SVG/1.1/DTD/svg11.dtd"><svg class="icon" width="200px" height="200.00px" viewBox="0 0 1024 1024" version="1.1" xmlns="http://www.w3.org/2000/svg"><path d="M831.5 328.5c22.1 0 40 17.9 40 40v440c0 22.1-17.9 40-40 40h-640c-22.1 0-40-17.9-40-40v-440c0-22.1 17.9-40 40-40h640m0-40h-640c-44.2 0-80 35.8-80 80v440c0 44.2 35.8 80 80 80h640c44.2 0 80-35.8 80-80v-440c0-44.2-35.8-80-80-80z" fill="#565C67" /><path d="M511.5 168.5c55.1 0 100 44.9 100 100v20h-200v-20c0-55.1 44.9-100 100-100m0-40c-77.3 0-140 62.7-140 140v60h280v-60c0-77.3-62.7-140-140-140z" fill="#565C67" /><path d="M680.8 686c14.1 14.3 14.1 37.6 0 52l-10.3 10.5H351.7L341.4 738c-14.1-14.3-14.1-37.6 0-52L469 621.7v-8c-28.4-14.4-48-43.8-48-77.8v-20.3c0-48.1 39.1-87.2 87.2-87.2h5.8c48.2 0 87.2 39 87.2 87.2V536c0 34-19.5 63.4-48 77.8v8.1L680.8 686z" fill="#CCCED1" /></svg>