<?xml version="1.0" encoding="utf-8"?>
<!-- Generator: Adobe Illustrator 22.0.0, SVG Export Plug-In . SVG Version: 6.00 Build 0)  -->
<svg version="1.1" id="图层_1" xmlns="http://www.w3.org/2000/svg" xmlns:xlink="http://www.w3.org/1999/xlink" x="0px" y="0px"
	 viewBox="0 0 200 200" style="enable-background:new 0 0 200 200;" xml:space="preserve">
<style type="text/css">
	.st0{fill:#1678FF;}
</style>
<path class="st0" d="M99.9,25.1c-15.1,0-27.3,12.2-27.3,27.3v11.7h54.7V52.4C127.2,37.3,115,25.1,99.9,25.1z"/>
<path class="st0" d="M162.4,56.3h-125c-8.6,0-15.6,7-15.6,15.6v85.9c0,8.6,7,15.6,15.6,15.6h125c8.6,0,15.6-7,15.6-15.6V72
	C178,63.3,171,56.3,162.4,56.3z M133,144.1l-2,2.1H68.7l-2-2.1c-2.8-2.8-2.8-7.3,0-10.2l24.9-12.6v-1.6c-5.5-2.8-9.4-8.6-9.4-15.2
	v-4c0-9.4,7.6-17,17-17h1.1c9.4,0,17,7.6,17,17v4c0,6.6-3.8,12.4-9.4,15.2v1.6L133,134C135.7,136.8,135.7,141.3,133,144.1z"/>
</svg>
