<?xml version="1.0" encoding="utf-8"?>
<!-- Generator: Adobe Illustrator 22.0.0, SVG Export Plug-In . SVG Version: 6.00 Build 0)  -->
<svg version="1.1" id="图层_1" xmlns="http://www.w3.org/2000/svg" xmlns:xlink="http://www.w3.org/1999/xlink" x="0px" y="0px"
	 viewBox="0 0 200 200" style="enable-background:new 0 0 200 200;" xml:space="preserve">
<style type="text/css">
	.st0{fill:#565C67;}
	.st1{fill:#CCCED1;}
</style>
<path class="st0" d="M101,29.9c38.7,0,70.1,31.5,70.1,70.1s-31.5,70.1-70.1,70.1c-17,0-33.5-6.2-46.2-17.4l-3-2.6l-3.9,0.8
	c-3.4,0.7-7,1.4-10.7,2.1c1.3-3.2,2.7-6.4,4.1-9.8l1.6-3.7l-2.1-3.5c-6.5-10.9-9.9-23.3-9.9-36C30.9,61.3,62.3,29.9,101,29.9
	 M101,21.9c-43.1,0-78.1,35-78.1,78.1c0,14.1,3.8,28,11.1,40.1c-2.4,5.8-4.9,11.6-7.3,17.4c-0.3,0.7-0.3,1.4-0.2,2.1
	c0.3,1.7,1.8,2.9,3.6,2.9c0.2,0,0.4,0,0.7-0.1c0.1,0,8.6-1.6,18.8-3.7c14.3,12.5,32.5,19.4,51.5,19.4c43.1,0,78.1-35,78.1-78.1
	S144.1,21.9,101,21.9L101,21.9z"/>
<path class="st1" d="M104.7,152.4c-26.8,0-48.6-23.5-48.6-52.3c0-4.3,3.4-7.8,7.5-7.8S71,95.8,71,100c0,20.3,15.1,36.8,33.7,36.8
	c18.6,0,33.7-16.5,33.7-36.8c0-2,0.7-3.9,2.1-5.4c1.4-1.5,3.4-2.4,5.4-2.4c4.1,0,7.5,3.5,7.5,7.8
	C153.4,128.9,131.5,152.4,104.7,152.4z"/>
</svg>
