<?xml version="1.0" encoding="utf-8"?>
<!-- Generator: Adobe Illustrator 22.0.0, SVG Export Plug-In . SVG Version: 6.00 Build 0)  -->
<svg version="1.1" id="图层_1" xmlns="http://www.w3.org/2000/svg" xmlns:xlink="http://www.w3.org/1999/xlink" x="0px" y="0px"
	 viewBox="0 0 200 200" style="enable-background:new 0 0 200 200;" xml:space="preserve">
<style type="text/css">
	.st0{fill:#CCCED1;}
	.st1{fill:#565C67;}
</style>
<path class="st0" d="M139.6,116.9c-3.3-8.7-9.6-16-17.6-20.8c3.2-4.5,5.2-10,5.2-15.9c0-15-12.2-27.1-27.1-27.1S72.9,65.1,72.9,80.1
	c0,5.9,1.9,11.4,5.2,15.9c-7.9,4.8-14.2,12.1-17.6,20.7c-0.8,2.1,0.2,4.5,2.3,5.3c0.5,0.2,1,0.3,1.5,0.3c1.6,0,3.2-1,3.9-2.7
	c3-7.5,8.7-13.9,15.8-17.7c4.5,3.3,10,5.2,16,5.2c6,0,11.5-1.9,16-5.2c7.2,3.8,13,10.1,16,17.8c0.6,1.5,2.1,2.6,3.8,2.6h0
	c0.5,0,1-0.1,1.5-0.2C139.4,121.4,140.4,119,139.6,116.9z M81,80.1c0-10.5,8.6-19,19-19s19,8.6,19,19c0,10.5-8.5,19-19,19
	S81,90.6,81,80.1z"/>
<path class="st1" d="M165.3,27.5H34.7c-9,0-16.3,7.3-16.3,16.3v87.8c0,9,7.3,16.3,16.3,16.3h45.9v16.4H51.5c-2.2,0-4.1,1.8-4.1,4.1
	s1.8,4.1,4.1,4.1h96.9c2.2,0,4.1-1.8,4.1-4.1s-1.8-4.1-4.1-4.1h-29.1v-16.4h45.9c9,0,16.3-7.3,16.3-16.3V43.8
	C181.6,34.8,174.3,27.5,165.3,27.5z M111.2,164.3H88.8v-16.4h22.4V164.3z M173.5,131.6c0,4.5-3.7,8.2-8.2,8.2H34.7
	c-4.5,0-8.2-3.7-8.2-8.2V43.8c0-4.5,3.7-8.2,8.2-8.2h130.6c4.5,0,8.2,3.7,8.2,8.2V131.6z"/>
</svg>
