<?xml version="1.0" standalone="no"?><!DOCTYPE svg PUBLIC "-//W3C//DTD SVG 1.1//EN" "http://www.w3.org/Graphics/SVG/1.1/DTD/svg11.dtd"><svg class="icon" width="200px" height="200.00px" viewBox="0 0 1024 1024" version="1.1" xmlns="http://www.w3.org/2000/svg"><path d="M112 832h800v40H112v-40zM792 192c44.1 0 80 35.9 80 80v400c0 44.1-35.9 80-80 80H232c-44.1 0-80-35.9-80-80V272c0-44.1 35.9-80 80-80h560m0-40H232c-66.3 0-120 53.7-120 120v400c0 66.3 53.7 120 120 120h560c66.3 0 120-53.7 120-120V272c0-66.3-53.7-120-120-120z" fill="#565C67" /><path d="M737.3 412.3l-56.5-56.6-115.5 115.5-52.5-52.5 0.1-0.1-56.5-56.6-0.2 0.1-0.1-0.1-55 55 0.1 0.1-114.5 114.6 56.5 56.6 114.6-114.6L566.1 582l0.8-0.7 0.7 0.7z" fill="#CCCED1" /></svg>