<?xml version="1.0" standalone="no"?><!DOCTYPE svg PUBLIC "-//W3C//DTD SVG 1.1//EN" "http://www.w3.org/Graphics/SVG/1.1/DTD/svg11.dtd"><svg class="icon" width="200px" height="200.00px" viewBox="0 0 1024 1024" version="1.1" xmlns="http://www.w3.org/2000/svg"><path d="M664.576 95.459556V85.333333a28.444444 28.444444 0 0 0-28.444444-28.444444H348.558222a28.444444 28.444444 0 0 0-28.444444 28.444444v10.126223H199.111111a85.333333 85.333333 0 0 0-85.333333 85.333333v675.555555a85.333333 85.333333 0 0 0 85.333333 85.333334h576a85.333333 85.333333 0 0 0 85.333333-85.333334V180.792889a85.333333 85.333333 0 0 0-85.333333-85.333333h-110.535111z m-307.256889 0h266.638222v45.568H357.319111v-45.511112z m410.794667 796.273777H203.946667a45.511111 45.511111 0 0 1-45.511111-45.511111V186.595556a45.511111 45.511111 0 0 1 45.511111-45.511112h116.167111V153.6a28.444444 28.444444 0 0 0 28.444444 28.444444h287.573334a28.444444 28.444444 0 0 0 28.444444-28.444444v-12.515556h103.537778a45.511111 45.511111 0 0 1 45.511111 45.511112v659.626666a45.511111 45.511111 0 0 1-45.511111 45.511111zM448.512 516.152889l-39.082667-37.091556h213.447111a23.267556 23.267556 0 0 0 0-46.535111H409.429333l39.082667-37.148444a22.471111 22.471111 0 0 0-0.056889-32.597334 25.258667 25.258667 0 0 0-34.645333-0.056888L341.105778 430.876444a34.133333 34.133333 0 0 0 0 49.834667l72.704 68.152889c9.784889 9.102222 24.917333 9.102222 34.645333 0a22.471111 22.471111 0 0 0 0.056889-32.711111z m137.784889 102.4H372.906667a23.267556 23.267556 0 1 0 0 46.535111h213.390222l-39.082667 37.148444a22.471111 22.471111 0 0 0 0.056889 32.654223c9.728 9.102222 24.917333 9.102222 34.645333 0l72.704-68.152889a34.133333 34.133333 0 0 0 0-49.777778L581.973333 548.750222a25.258667 25.258667 0 0 0-34.645333 0.056889 22.471111 22.471111 0 0 0-0.056889 32.654222l39.082667 37.148445z" fill="#687179" /></svg>