<?xml version="1.0" encoding="utf-8"?>
<!-- Generator: Adobe Illustrator 22.0.0, SVG Export Plug-In . SVG Version: 6.00 Build 0)  -->
<svg version="1.1" id="图层_1" xmlns="http://www.w3.org/2000/svg" xmlns:xlink="http://www.w3.org/1999/xlink" x="0px" y="0px"
	 viewBox="0 0 200 200" style="enable-background:new 0 0 200 200;" xml:space="preserve">
<style type="text/css">
	.st0{fill:#1678FF;}
</style>
<path class="st0" d="M155.4,18.6h-21.6v-2c0-3.1-2.5-5.6-5.6-5.6H72.1c-3.1,0-5.6,2.5-5.6,5.6v2H42.9c-9.2,0-16.7,7.5-16.7,16.7
	v131.9c0,9.2,7.5,16.7,16.7,16.7h112.5c9.2,0,16.7-7.5,16.7-16.7V35.3C172.1,26.1,164.6,18.6,155.4,18.6z M73.8,23.1
	c0-2.5,2-4.4,4.5-4.4h43.2c2.5,0,4.4,2,4.4,4.4c0,2.5-2,4.5-4.4,4.5H78.2C75.8,27.5,73.8,25.6,73.8,23.1L73.8,23.1z M70.3,93.6
	c-2.5-2.7-2.4-6.9,0.3-9.4l14.2-13.3c1.9-1.8,4.9-1.8,6.8,0c0.1,0.1,0.1,0.1,0.2,0.2c1.7,1.8,1.6,4.5-0.2,6.2L84,84.5h41.7
	c2.5,0,4.5,2,4.5,4.5c0,2.5-2,4.5-4.5,4.5H84l7.6,7.2c0.1,0.1,0.1,0.1,0.2,0.2c1.7,1.8,1.6,4.5-0.2,6.2c-1.9,1.8-4.9,1.8-6.8,0
	L70.6,93.9C70.5,93.8,70.4,93.7,70.3,93.6z M131.9,130.2l-14.2,13.3c-1.9,1.8-4.9,1.8-6.8,0c-0.1-0.1-0.1-0.1-0.2-0.2
	c-1.7-1.8-1.6-4.5,0.2-6.2l7.6-7.3H76.8c0,0,0,0,0,0c-2.5,0-4.5-2-4.5-4.5s2-4.5,4.5-4.5h41.7l-7.6-7.2c-0.1-0.1-0.1-0.1-0.2-0.2
	c-1.7-1.8-1.6-4.5,0.2-6.2c1.9-1.8,4.9-1.8,6.8,0l14.2,13.3c0.1,0.1,0.2,0.2,0.3,0.3C134.7,123.5,134.5,127.7,131.9,130.2z"/>
</svg>
