<?xml version="1.0" encoding="utf-8"?>
<!-- Generator: Adobe Illustrator 22.0.0, SVG Export Plug-In . SVG Version: 6.00 Build 0)  -->
<svg version="1.1" id="图层_1" xmlns="http://www.w3.org/2000/svg" xmlns:xlink="http://www.w3.org/1999/xlink" x="0px" y="0px"
	 viewBox="0 0 200 200" style="enable-background:new 0 0 200 200;" xml:space="preserve">
<style type="text/css">
	.st0{fill:#1678FF;}
</style>
<g>
	<path class="st0" d="M73.3,143.8c-1.2-2.1-3.8-2.5-5.8-1.2s-2.5,3.8-1.2,5.8c0,0,0.8,1.2,2.5,3.3c0.8,1.3,2.1,1.7,3.3,1.7
		c0.8,0,1.7-0.4,2.5-0.8c1.7-1.2,2.1-4.2,0.8-5.8C73.8,145,73.3,144.2,73.3,143.8z"/>
	<path class="st0" d="M131.7,119.6L131.7,119.6c0.8,0,2.1-0.4,2.5-0.8c1.7-1.7,2.1-4.2,0.4-5.8c-1.2-1.7-2.5-3.3-2.9-5
		c-0.8-2.1-2.9-3.3-5.4-2.9c-2.1,0.8-3.3,2.9-2.9,5.4c0.8,2.9,2.5,5.4,4.6,7.9C129.2,119.2,130.4,119.6,131.7,119.6z"/>
	<path class="st0" d="M110.4,167.1L110.4,167.1c-2.5-0.4-4.6-0.8-6.7-1.2c-2.1-0.8-4.6,0.8-5,2.9c-0.4,2.1,0.8,4.6,2.9,5
		c2.5,0.8,5,1.2,7.9,1.7h0.4c2.1,0,3.8-1.7,4.2-3.8C114.2,169.6,112.5,167.5,110.4,167.1z"/>
	<path class="st0" d="M145.4,83.8c0.8,0,1.2,0,2.1-0.4c2.1-1.2,4.2-2.1,6.2-3.3c2.1-0.8,2.9-3.3,2.1-5.4c-0.8-2.1-3.3-2.9-5.4-2.1
		c-2.5,1.2-5,2.1-7.1,3.3c-2.1,1.2-2.9,3.8-1.7,5.8C142.5,82.9,144.2,83.8,145.4,83.8z"/>
	<path class="st0" d="M90.8,160c-2.1-1.2-3.8-2.5-5.8-3.8c-1.7-1.2-4.6-1.2-5.8,0.8c-1.2,1.7-1.2,4.6,0.8,5.8
		c2.1,1.7,4.2,3.3,6.7,4.6c0.8,0.4,1.2,0.4,2.1,0.4c1.2,0,2.9-0.8,3.8-2.1C93.3,163.8,92.9,161.2,90.8,160z"/>
	<path class="st0" d="M131.2,166.2c-2.1,0.4-4.6,0.8-7.1,0.8s-4.2,2.1-3.8,4.6c0,2.1,2.1,3.8,4.2,3.8h0.4c2.9-0.4,5.4-0.4,7.9-1.2
		c2.1-0.4,3.8-2.5,3.3-5S133.3,165.8,131.2,166.2z"/>
	<path class="st0" d="M130.4,85.4c-2.1,2.1-3.8,4.6-5,7.1c-1.2,2.1-0.4,4.6,1.7,5.4c0.4,0.4,1.2,0.4,2.1,0.4c1.7,0,2.9-0.8,3.8-2.1
		c0.8-1.7,2.1-3.3,3.8-5s1.7-4.2,0-5.8C134.6,83.8,132.1,83.8,130.4,85.4z"/>
	<path class="st0" d="M157.1,136.2L157.1,136.2c-2.1,0.8-3.3,2.9-2.9,5c0.4,1.2,0.4,2.1,0.4,3.3v2.1c-0.4,2.1,1.2,4.6,3.8,4.6h0.4
		c2.1,0,3.8-1.7,4.2-3.8c0-1.2,0.4-2.5,0.4-3.3c0-2.1-0.4-3.8-0.8-5.8C161.7,137.1,159.6,135.8,157.1,136.2z"/>
	<path class="st0" d="M149.2,157.9c-1.7,1.2-3.3,2.9-5,3.8c-2.1,1.2-2.5,3.8-1.7,5.8c0.8,1.2,2.1,2.1,3.8,2.1c0.8,0,1.2,0,2.1-0.4
		c2.5-1.7,4.6-3.3,6.7-5c1.7-1.7,1.7-4.2,0-5.8C153.3,156.7,150.8,156.2,149.2,157.9z"/>
	<path class="st0" d="M149.2,132.9c1.2,0,2.5-0.4,3.3-1.7c1.2-1.7,0.8-4.6-0.8-5.8c-0.8-0.8-5-3.3-5.8-4.2c-2.1-1.2-4.6-0.8-5.8,1.2
		c-1.2,1.7-0.8,4.6,1.2,5.8c0.8,0.4,5,3.3,5.8,3.8C147.5,132.9,148.3,132.9,149.2,132.9z"/>
	<path class="st0" d="M174.2,69.2c-0.4-2.1-2.5-3.8-5-3.3c0,0-1.2,0.4-3.8,0.8c-2.1,0.4-3.3,2.9-2.9,5c0.4,1.7,2.1,2.9,4.2,2.9h1.2
		c2.1-0.4,3.3-0.8,3.3-0.8C173.3,73.8,174.6,71.2,174.2,69.2z"/>
	<path class="st0" d="M66.7,25C43.8,25,25,44.2,25,67.5c0,32.9,41.7,65.8,41.7,65.8s41.7-32.9,41.7-65.8C108.3,44.2,89.6,25,66.7,25
		z M66.7,79.2c-6.9,0-12.5-5.6-12.5-12.5s5.6-12.5,12.5-12.5s12.5,5.6,12.5,12.5S73.6,79.2,66.7,79.2z"/>
</g>
</svg>
